<?xml version="1.0" standalone="no"?>
<!DOCTYPE svg PUBLIC "-//W3C//DTD SVG 20010904//EN"
 "http://www.w3.org/TR/2001/REC-SVG-20010904/DTD/svg10.dtd">
<svg version="1.0" xmlns="http://www.w3.org/2000/svg"
 width="700.000000pt" height="700.000000pt" viewBox="0 0 700.000000 700.000000"
 preserveAspectRatio="xMidYMid meet">
<metadata>
Created by potrace 1.11, written by Peter Selinger 2001-2013
</metadata>
<g transform="translate(0.000000,700.000000) scale(0.100000,-0.100000)"
fill="#000000" stroke="none">
<path d="M2350 6985 c-404 -64 -749 -339 -900 -719 -41 -102 -46 -135 -26
-174 20 -38 44 -52 91 -52 48 0 86 38 110 110 100 306 386 557 715 627 79 17
159 18 1155 18 878 0 1083 -3 1140 -14 276 -55 507 -216 649 -451 54 -88 109
-240 125 -340 7 -41 11 -377 11 -920 0 -954 2 -921 -70 -1059 -52 -99 -113
-168 -204 -229 -122 -81 -171 -94 -378 -100 -145 -3 -187 -1 -235 13 -142 41
-270 159 -318 295 -9 25 -21 97 -26 160 -12 142 -30 214 -75 306 -121 247
-382 398 -659 381 -240 -14 -458 -154 -568 -366 -65 -124 -69 -147 -77 -466
-6 -220 -12 -304 -24 -349 -59 -210 -240 -388 -451 -441 -76 -19 -214 -19
-290 0 -205 52 -374 209 -443 410 l-27 80 -5 1000 c-3 550 -9 1008 -14 1018
-10 21 -57 47 -86 47 -31 0 -74 -25 -88 -52 -10 -18 -12 -242 -10 -1038 l3
-1015 23 -73 c42 -136 122 -271 216 -362 l46 -44 0 -1216 c0 -1179 1 -1219 20
-1294 28 -112 73 -189 160 -277 55 -55 95 -85 150 -112 123 -60 166 -67 420
-67 l227 0 14 -26 c39 -74 180 -163 288 -184 76 -14 1054 -13 1123 1 87 18
182 74 247 145 l58 64 216 0 c240 0 288 7 396 56 126 58 231 159 290 279 61
126 61 125 61 738 0 364 -4 565 -10 578 -13 22 -61 49 -90 49 -33 0 -75 -26
-88 -55 -9 -19 -12 -164 -12 -544 0 -309 -4 -540 -10 -572 -30 -159 -162 -288
-325 -318 -32 -6 -128 -11 -212 -11 l-153 0 0 1546 c0 1468 1 1546 18 1539 54
-21 162 -35 280 -35 147 0 246 12 330 41 30 10 59 19 64 19 4 0 8 -286 8 -636
l0 -636 29 -29 c41 -41 101 -41 142 0 l29 29 0 701 0 701 54 55 c140 140 216
305 236 513 13 136 13 1537 0 1692 -24 291 -134 533 -335 735 -164 165 -343
264 -585 321 -69 17 -159 18 -1170 20 -879 2 -1112 0 -1180 -11z m1269 -2366
c95 -22 203 -95 267 -181 61 -83 84 -152 95 -286 5 -63 16 -142 25 -175 23
-91 90 -212 156 -283 l58 -62 0 -1607 c0 -1203 -3 -1618 -12 -1647 -15 -51
-82 -126 -133 -149 -37 -17 -78 -19 -575 -19 l-535 0 -51 24 c-28 13 -65 41
-82 62 -66 80 -62 -16 -62 1534 l0 1407 21 19 c38 34 109 140 143 216 63 135
67 166 76 483 4 183 12 305 20 330 23 73 62 138 118 197 125 131 287 178 471
137z m-1059 -2869 l0 -1330 -154 0 c-84 0 -178 5 -207 10 -128 24 -243 112
-297 228 l-27 57 -3 1168 c-1 646 2 1167 6 1167 5 0 34 -9 65 -19 87 -30 201
-44 300 -37 87 7 235 43 286 71 14 8 27 14 29 15 1 0 2 -598 2 -1330z"/>
<path d="M2316 5889 c-25 -29 -26 -35 -26 -162 0 -128 1 -131 27 -159 20 -21
36 -28 66 -28 86 0 107 37 107 190 0 154 -21 190 -108 190 -33 0 -45 -6 -66
-31z"/>
<path d="M4537 5894 c-32 -32 -41 -84 -35 -206 4 -87 6 -92 36 -119 23 -20 43
-29 68 -29 81 0 104 42 104 190 0 150 -23 190 -108 190 -29 0 -46 -7 -65 -26z"/>
<path d="M3138 5701 c-44 -39 -45 -93 -4 -142 83 -98 194 -150 338 -157 119
-5 205 17 296 78 125 84 155 162 85 226 -44 41 -91 34 -159 -26 -126 -110
-275 -106 -409 10 -58 51 -99 54 -147 11z"/>
</g>
</svg>