<svg height="512pt" viewBox="-100 0 512 512" width="512pt" xmlns="http://www.w3.org/2000/svg"><path d="m113.257812 488.640625h-47.5625c-20.363281 0-36.871093-16.503906-36.871093-36.867187v-377.734376c0-20.359374 16.507812-36.867187 36.871093-36.867187h47.5625c20.363282 0 36.871094 16.507813 36.871094 36.867187v377.730469c0 20.363281-16.507812 36.871094-36.871094 36.871094zm0 0" fill="#d2996f"/><path d="m198.257812 488.640625h47.558594c20.363282 0 36.871094-16.503906 36.871094-36.867187v-377.734376c0-20.359374-16.507812-36.867187-36.871094-36.867187h-47.558594c-20.363281 0-36.871093 16.507813-36.871093 36.867187v377.730469c0 20.363281 16.507812 36.871094 36.871093 36.871094zm0 0" fill="#d2996f"/><path d="m190.335938 504.5h-69.15625c-14.398438 0-26.074219-11.675781-26.074219-26.074219v-431.039062c0-14.398438 11.675781-26.074219 26.074219-26.074219h69.15625c14.398437 0 26.070312 11.675781 26.070312 26.074219v431.039062c0 14.398438-11.671875 26.074219-26.070312 26.074219zm0 0" fill="#e1b89a"/><path d="m7.496094 84.902344v148.117187c0 29.050781 23.554687 52.601563 52.605468 52.601563 29.054688 0 52.605469-23.550782 52.605469-52.601563v-24.582031c0-23.773438 19.273438-43.046875 43.050781-43.046875 23.773438 0 43.046876 19.273437 43.046876 43.046875 0 23.296875 18.886718 42.183594 42.183593 42.183594h10.421875c29.054688 0 52.605469-23.550782 52.605469-52.601563v-113.117187c0-42.75-34.65625-77.402344-77.402344-77.402344h-141.714843c-42.746094 0-77.402344 34.652344-77.402344 77.402344zm0 0" fill="#fcf2d0"/><path d="m84.898438 7.5c-42.746094 0-77.398438 34.652344-77.398438 77.402344v148.117187c0 29.050781 23.550781 52.605469 52.605469 52.605469 29.050781 0 52.605469-23.554688 52.605469-52.605469v-24.582031c0-17.746094 10.738281-32.976562 26.074218-39.566406-26.765625-35.503906-24.574218-112.6875-8.925781-161.371094zm0 0" fill="#f6e3a3"/><path d="m90.542969 129.886719c0-16.773438-17.074219-30.367188-38.132813-30.367188s-38.132812 13.59375-38.132812 30.367188c0 16.769531 17.074218 30.367187 38.132812 30.367187s38.132813-13.597656 38.132813-30.367187zm0 0" fill="#eda1ab"/><path d="m297.238281 129.886719c0-16.773438-17.074219-30.367188-38.132812-30.367188-21.0625 0-38.132813 13.59375-38.132813 30.367188 0 16.769531 17.070313 30.367187 38.132813 30.367187 21.058593 0 38.132812-13.597656 38.132812-30.367187zm0 0" fill="#eda1ab"/><g fill="#fcf2d0"><path d="m177.144531 284.03125c-1.917969 0-3.839843-.734375-5.304687-2.195312-2.929688-2.929688-2.929688-7.679688 0-10.609376l4.433594-4.429687c2.929687-2.929687 7.675781-2.929687 10.605468 0 2.929688 2.929687 2.929688 7.679687 0 10.605469l-4.429687 4.433594c-1.464844 1.464843-3.386719 2.195312-5.304688 2.195312zm0 0"/><path d="m171.824219 459.507812c-1.917969 0-3.835938-.730468-5.300781-2.195312-2.929688-2.929688-2.929688-7.675781 0-10.605469l4.429687-4.433593c2.929687-2.925782 7.679687-2.925782 10.605469 0 2.929687 2.929687 2.929687 7.679687 0 10.609374l-4.429688 4.429688c-1.464844 1.464844-3.382812 2.195312-5.304687 2.195312zm0 0"/><path d="m255.367188 427.695312c-1.921876 0-3.839844-.734374-5.304688-2.199218l-4.429688-4.429688c-2.929687-2.929687-2.929687-7.675781 0-10.605468 2.929688-2.929688 7.675782-2.929688 10.605469 0l4.429688 4.429687c2.929687 2.929687 2.929687 7.679687 0 10.605469-1.464844 1.464844-3.382813 2.199218-5.300781 2.199218zm0 0"/><path d="m134.976562 363.753906c-1.917968 0-3.835937-.730468-5.300781-2.195312l-4.433593-4.429688c-2.925782-2.933594-2.925782-7.679687.003906-10.609375 2.929687-2.929687 7.675781-2.925781 10.605468 0l4.429688 4.433594c2.929688 2.929687 2.929688 7.675781 0 10.605469-1.464844 1.464844-3.382812 2.195312-5.304688 2.195312zm0 0"/><path d="m63.082031 394.089844c-1.921875 0-3.839843-.730469-5.304687-2.195313-2.929688-2.929687-2.929688-7.679687 0-10.605469l4.433594-4.429687c2.929687-2.929687 7.675781-2.929687 10.605468 0 2.929688 2.929687 2.929688 7.675781 0 10.605469l-4.429687 4.429687c-1.464844 1.464844-3.386719 2.195313-5.304688 2.195313zm0 0"/></g><path d="m155.757812 117.433594c10.363282 0 20.222657-4.488282 27.042969-12.316406 2.71875-3.125 2.394531-7.859376-.730469-10.582032-3.121093-2.722656-7.859374-2.398437-10.578124.726563-3.972657 4.558593-9.707032 7.171875-15.734376 7.171875-6.027343 0-11.761718-2.613282-15.734374-7.171875-2.71875-3.121094-7.457032-3.445313-10.578126-.726563-3.125 2.722656-3.449218 7.457032-.730468 10.582032 6.820312 7.824218 16.675781 12.316406 27.042968 12.316406zm88.621094-17.839844v-13.46875c0-4.140625-3.355468-7.5-7.5-7.5-4.140625 0-7.5 3.359375-7.5 7.5v13.46875c0 4.140625 3.359375 7.5 7.5 7.5 4.144532 0 7.5-3.359375 7.5-7.5zm-162.246094 0v-13.46875c0-4.140625-3.355468-7.5-7.5-7.5-4.140624 0-7.5 3.359375-7.5 7.5v13.46875c0 4.140625 3.359376 7.5 7.5 7.5 4.144532 0 7.5-3.359375 7.5-7.5zm144.480469-99.59375h-141.714843c-18.710938 0-36.457032 5.96875-51.320313 17.261719-14.375 10.925781-25.082031 26.433593-30.148437 43.671875-1.164063 3.972656 1.109374 8.140625 5.082031 9.308594 3.980469 1.171874 8.144531-1.105469 9.3125-5.082032 8.675781-29.53125 36.257812-50.160156 67.074219-50.160156h141.714843c38.546875 0 69.902344 31.355469 69.902344 69.902344v113.117187c0 24.871094-20.234375 45.101563-45.105469 45.101563h-10.421875c-19.125 0-34.683593-15.558594-34.683593-34.683594 0-27.871094-22.675782-50.546875-50.546876-50.546875-27.871093 0-50.546874 22.675781-50.546874 50.546875v24.582031c0 24.871094-20.234376 45.101563-45.105469 45.101563-24.871094 0-45.105469-20.230469-45.105469-45.101563v-135.671875c0-4.140625-3.355469-7.5-7.5-7.5s-7.5 3.359375-7.5 7.5v135.671875c0 18.375 8.296875 34.835938 21.328125 45.871094v172.882813c0 24.464843 19.902344 44.367187 44.371094 44.367187h26.980469c5.933593 9.511719 16.488281 15.859375 28.5 15.859375h69.15625c12.011718 0 22.566406-6.347656 28.5-15.859375h26.980468c24.46875 0 44.371094-19.902344 44.371094-44.367187v-72.6875c0-4.144532-3.355469-7.5-7.5-7.5-4.140625 0-7.5 3.355468-7.5 7.5v72.6875c0 16.191406-13.175781 29.367187-29.371094 29.367187h-22.027344c.074219-.894531.121094-1.800781.121094-2.714844v-223.328125c5.328125 1.957032 11.082032 3.027344 17.078125 3.027344h10.421875c8.445313 0 16.480469-1.757812 23.777344-4.914062v90.640624c0 4.144532 3.359375 7.5 7.5 7.5 4.144531 0 7.5-3.355468 7.5-7.5v-99.960937c13.03125-11.035156 21.328125-27.5 21.328125-45.871094v-113.117187c0-46.816406-38.085937-84.902344-84.902344-84.902344zm-160.917969 481.140625c-16.191406 0-29.371093-13.175781-29.371093-29.367187v-163.5625c7.296875 3.15625 15.335937 4.914062 23.777343 4.914062 9.910157 0 19.253907-2.425781 27.503907-6.6875v191.988281c0 .914063.046875 1.820313.117187 2.714844zm143.210938-2.714844c0 10.242188-8.332031 18.574219-18.570312 18.574219h-69.15625c-10.242188 0-18.574219-8.332031-18.574219-18.574219v-202.949219c10.871093-10.878906 17.605469-25.898437 17.605469-42.457031v-24.582031c0-19.597656 15.945312-35.546875 35.546874-35.546875 19.601563 0 35.546876 15.949219 35.546876 35.550781 0 15.175782 6.847656 28.773438 17.605468 37.894532v232.089843zm0 0"/></svg>